PathFileType	4	(X/Y/Z)	C:/Users/opensim2020/Desktop/walking_exp_matlab/subject01_walking11_straight_01.trc	
DataRate	CameraRate	NumFrames	NumMarkers	Units	OrigDataRate	OrigDataStartFrame	OrigNumFrames	
100.00	100.00	8	44	mm	100.00	1003	374	
Frame#	Time	LFHD			RFHD			LBHD			RBHD			C7			T10			CLAV			STRN			RBAK			LSHO			LUPA			LELB			LFRM			LWRA			LWRB			LFIN			RSHO			RUPA			RELB			RFRM			RWRA			RWRB			RFIN			LASI			RASI			LPSI			RPSI			LTHI			LKNE			LTIB			LANK			LHEE			LTOE			RTHI			RKNE			RTIB			RANK			RHEE			RTOE			*39			*40			*41			*42			*43			
		X1	Y1	Z1	X2	Y2	Z2	X3	Y3	Z3	X4	Y4	Z4	X5	Y5	Z5	X6	Y6	Z6	X7	Y7	Z7	X8	Y8	Z8	X9	Y9	Z9	X10	Y10	Z10	X11	Y11	Z11	X12	Y12	Z12	X13	Y13	Z13	X14	Y14	Z14	X15	Y15	Z15	X16	Y16	Z16	X17	Y17	Z17	X18	Y18	Z18	X19	Y19	Z19	X20	Y20	Z20	X21	Y21	Z21	X22	Y22	Z22	X23	Y23	Z23	X24	Y24	Z24	X25	Y25	Z25	X26	Y26	Z26	X27	Y27	Z27	X28	Y28	Z28	X29	Y29	Z29	X30	Y30	Z30	X31	Y31	Z31	X32	Y32	Z32	X33	Y33	Z33	X34	Y34	Z34	X35	Y35	Z35	X36	Y36	Z36	X37	Y37	Z37	X38	Y38	Z38	X39	Y39	Z39	X40	Y40	Z40	X41	Y41	Z41	X42	Y42	Z42	X43	Y43	Z43	X44	Y44	Z44	

94	0.930	1419.49316	-731.19373	1671.33569	1530.59814	-706.71741	1679.23657	1438.73584	-830.99310	1597.82410	1556.85962	-807.31586	1604.77502	1462.37158	-826.63574	1420.81335	1459.70911	-859.00983	1129.28259	1464.96277	-681.92731	1357.64075	1453.06628	-637.93774	1200.95984	1527.25208	-881.85974	1224.06458	1304.46692	-736.56079	1392.84924	1212.21411	-744.51636	1211.23877	1205.37805	-737.27472	1058.78247	1183.27026	-672.61890	962.84094	1206.56482	-571.17474	870.86432	1179.04675	-620.34009	852.16193	1171.47083	-555.38470	799.34357	1614.30652	-753.40045	1377.38171	1701.62817	-817.99902	1173.48682	1701.27710	-816.43701	1050.29895	1731.15405	-796.09674	932.26843	1717.88342	-720.20740	812.38379	1752.42517	-767.86719	814.11975	1750.08105	-734.67944	734.18549	1345.13806	-690.64349	919.95837	1561.19397	-675.96753	929.81262	1410.82751	-873.19507	934.39612	1556.40137	-861.97369	937.30548	1302.74487	-760.98926	587.16577	1317.01001	-792.66254	453.96640	1309.31897	-904.68622	299.89929	1359.87109	-1010.90674	106.85814	1413.30945	-1063.18628	94.17096	1355.12671	-885.73566	28.43465	1626.57458	-664.14197	604.41064	1598.80774	-619.34363	453.55432	1610.97815	-641.13647	278.12607	1568.34534	-632.70428	71.37297	1519.34521	-679.08734	30.58709	1563.80603	-491.16202	38.66030	1510.99890	-729.48920	1708.67932	-3102.03003	1973.15784	1023.39929	-3140.66919	2012.48901	1021.99207						 
95	0.940	1421.81885	-725.35138	1672.28662	1532.85864	-700.68726	1680.20813	1441.29175	-825.18872	1598.91907	1559.31396	-801.33655	1605.89771	1464.92749	-820.69568	1421.60010	1461.70264	-852.68091	1130.08203	1467.21814	-676.00238	1358.85059	1455.17615	-631.59491	1202.30383	1529.81702	-875.40497	1224.69556	1306.94580	-730.99225	1394.11108	1214.17688	-739.10956	1212.75977	1207.64612	-732.79016	1059.97083	1185.12976	-669.13464	963.72083	1208.01147	-568.32452	870.89270	1180.53235	-617.66290	852.65759	1172.88477	-553.06165	799.15363	1616.59351	-747.24548	1378.37061	1704.09277	-811.14056	1174.30725	1703.41028	-809.37347	1051.11780	1732.99829	-788.69727	933.05939	1719.27637	-712.54688	813.33258	1754.11511	-760.12360	815.17230	1751.35413	-726.88666	734.91077	1347.44006	-683.84875	921.14954	1563.40894	-669.48193	930.73468	1412.40027	-866.33521	935.37305	1558.00671	-855.51892	938.34552	1303.81873	-750.87268	587.56781	1317.39294	-781.35431	454.24353	1309.23145	-896.40710	302.48416	1358.98279	-1007.08496	111.82659	1412.30847	-1059.49048	100.77390	1355.04089	-885.15985	28.37323	1628.21082	-660.07202	604.77753	1600.33716	-616.27618	453.48267	1611.85400	-639.43274	278.03757	1568.55371	-632.45953	71.22046	1519.65759	-679.05945	30.73653	1563.63953	-490.87173	38.20192	1513.26843	-723.45117	1709.67981	-3102.01685	1973.04407	1023.49896	-3140.77051	2012.52307	1022.08282						 
96	0.950	1424.07764	-719.57977	1673.14966	1535.02112	-694.67078	1681.18848	1443.75842	-819.56842	1600.10168	1561.73755	-795.34985	1607.01807	1467.56567	-814.97192	1422.45422	1463.74414	-846.31714	1130.81995	1469.49353	-670.07916	1360.08203	1457.28406	-625.30829	1203.60986	1532.48389	-868.99933	1225.43665	1309.40369	-725.38623	1395.30762	1216.21545	-733.65027	1214.20142	1209.78992	-728.78949	1061.41638	1186.88782	-665.94824	964.55499	1209.56653	-565.54504	870.88470	1181.97876	-615.35315	853.26556	1174.24023	-551.05798	799.01056	1619.05078	-740.84241	1379.36084	1706.70215	-804.24994	1175.21521	1705.67847	-802.29633	1051.99146	1734.92517	-781.19110	933.87634	1720.67688	-704.77124	814.34802	1755.83386	-752.13269	816.02551	1752.63538	-718.85229	735.79675	1349.80664	-677.02905	922.43365	1565.67346	-662.95660	931.73553	1414.03235	-859.60797	936.36523	1559.55151	-848.95746	939.32776	1304.84143	-740.23755	587.94495	1317.80359	-769.33765	454.48306	1309.12048	-887.68567	305.37314	1358.02600	-1002.84827	117.05424	1411.47083	-1055.29346	108.13891	1354.97778	-884.69159	28.48678	1629.70422	-656.29968	604.90887	1601.69299	-613.60858	453.21292	1612.71497	-638.05225	277.85339	1568.83179	-632.32025	71.12994	1519.89453	-679.10400	30.79571	1563.95459	-490.74591	37.92949	1515.51733	-717.31531	1710.70715	-3102.05884	1973.01331	1023.91785	-3140.78125	2012.46570	1022.07837						 
97	0.960	1426.24622	-713.72467	1674.06067	1537.15210	-688.63855	1682.02893	1446.18152	-813.69952	1601.04663	1564.07300	-789.37152	1608.04480	1470.08716	-809.23041	1423.22009	1465.92944	-840.00024	1131.54065	1471.72327	-664.19287	1361.26440	1459.37415	-619.08417	1204.89807	1535.21582	-862.62720	1226.13733	1311.73840	-719.76978	1396.46008	1218.16333	-728.33246	1215.67249	1211.88623	-724.86188	1062.66931	1188.63135	-662.76532	965.29578	1211.05212	-563.12579	870.68048	1183.40466	-613.06268	853.68195	1175.60461	-549.20026	798.76550	1621.32751	-734.66528	1380.31567	1709.29553	-797.34064	1176.12732	1707.87903	-795.22186	1052.76501	1736.92896	-773.62421	934.66248	1722.23303	-696.68323	815.48145	1757.41504	-743.89874	817.00769	1753.85938	-710.59521	736.68201	1352.16638	-670.39392	923.66498	1567.75354	-656.62604	932.56445	1415.64502	-853.04767	937.27991	1561.19592	-842.58490	940.39368	1305.76770	-729.21576	588.32733	1317.94897	-756.75031	454.77185	1309.09351	-878.46338	308.49731	1357.27588	-997.87231	122.81108	1411.05750	-1050.06091	116.02822	1355.05994	-884.10352	28.59015	1631.26538	-652.86267	605.15320	1603.16589	-611.16107	452.83878	1613.54224	-636.93567	277.62830	1569.06128	-632.31921	70.97632	1520.12524	-679.23071	30.88618	1564.22290	-490.62576	37.90990	1517.67273	-711.28406	1711.67822	-3101.94897	1973.19458	1023.47070	-3140.76074	2012.46765	1021.92151						 
98	0.970	1428.34766	-707.92615	1674.85852	1539.21350	-682.66760	1682.87683	1448.53809	-808.08984	1602.09314	1566.35779	-783.44397	1609.05896	1472.60681	-803.48871	1423.89050	1468.16602	-833.77277	1132.17761	1473.82947	-658.40735	1362.33899	1461.40295	-612.92615	1206.07996	1538.00940	-856.33508	1226.84155	1314.04712	-714.19879	1397.48413	1220.22083	-723.09302	1216.83960	1214.01428	-720.72772	1064.15442	1190.35071	-659.71039	966.01654	1212.44861	-560.68488	870.51221	1184.78064	-610.89795	853.98633	1176.94385	-547.51672	798.44574	1623.53186	-728.43060	1381.25220	1711.95386	-790.45178	1177.03638	1710.13708	-788.16187	1053.53455	1738.92615	-766.06586	935.41669	1723.67615	-688.77509	816.52466	1759.07898	-735.77283	817.79169	1755.22522	-702.22198	737.60651	1354.39441	-663.98523	924.78888	1569.90625	-650.34833	933.34802	1417.32031	-846.63782	938.06049	1562.93091	-836.28571	941.57074	1306.51331	-717.75409	588.64148	1317.80640	-743.59338	455.20636	1309.05847	-868.64929	311.90167	1356.84155	-992.40564	128.99008	1410.95361	-1043.82935	124.09631	1355.21155	-883.32190	28.74163	1632.70630	-649.70221	605.17987	1604.71277	-608.99048	452.50873	1614.45789	-635.98151	277.41794	1569.22620	-632.46307	70.82446	1520.19031	-679.32239	30.71204	1564.08228	-490.60818	37.36393	1519.76636	-705.29541	1712.56995	-3101.87891	1973.14014	1023.45264	-3140.75879	2012.49646	1022.14325						 
99	0.980	1430.45740	-702.16846	1675.53284	1541.24500	-676.70685	1683.68176	1450.85059	-802.25842	1602.89063	1568.61951	-777.51379	1609.99121	1474.95728	-797.72247	1424.46863	1470.41736	-827.55194	1132.72388	1475.90125	-652.49811	1363.32092	1463.43164	-606.73303	1207.16150	1540.79211	-850.07458	1227.48340	1316.24988	-708.62018	1398.44958	1222.24817	-718.16394	1218.00488	1215.99695	-716.70593	1065.29456	1192.02710	-656.68365	966.61743	1213.82739	-558.50098	870.15967	1186.16309	-608.92847	854.19183	1178.22302	-545.95966	797.96875	1625.77087	-722.16528	1382.02771	1714.55920	-783.53784	1177.85706	1712.48657	-781.04858	1054.20410	1741.01025	-758.41937	936.13239	1725.19653	-680.70355	817.57312	1760.93555	-727.40399	818.59296	1756.61157	-693.61591	738.52887	1356.64465	-657.69617	925.74554	1571.84851	-644.24518	933.89618	1419.02625	-840.41272	938.75507	1564.59290	-830.10413	942.48651	1307.17236	-705.96057	588.94769	1317.69385	-729.90875	455.42273	1309.07373	-858.32092	315.50867	1356.37488	-985.92670	134.92085	1411.08521	-1036.67981	132.30180	1355.49536	-882.36292	28.98942	1634.35291	-646.39716	605.23352	1606.31860	-607.05267	452.21542	1615.33618	-635.18530	277.16940	1569.51538	-632.48993	70.76554	1520.23328	-679.40588	30.56864	1564.08203	-490.49539	37.14162	1521.81885	-699.31409	1713.32361	-3101.98926	1973.12415	1023.43610	-3140.73975	2012.56079	1021.99518						 
100	0.990	1432.50037	-696.39063	1676.15698	1543.21497	-670.80145	1684.31299	1453.06067	-796.58228	1603.61646	1570.79065	-771.62750	1610.77026	1477.21387	-791.95868	1424.95984	1472.70776	-821.44238	1133.31091	1477.88159	-646.66992	1364.17188	1465.37976	-600.65924	1208.07507	1543.45422	-843.91376	1228.08533	1318.38049	-703.05591	1399.27332	1224.34534	-713.29913	1218.81042	1217.82092	-712.80603	1066.26001	1193.78821	-653.91504	967.13599	1215.12036	-556.35193	869.65289	1187.45825	-606.99084	854.24701	1179.47754	-544.51013	797.38397	1627.83215	-716.02740	1382.74829	1717.16492	-776.64703	1178.57739	1714.89185	-773.93134	1054.82227	1743.14099	-750.67889	936.77405	1726.82703	-672.44305	818.57782	1762.80151	-718.96729	819.40710	1758.06250	-684.84326	739.34302	1358.73560	-651.58606	926.48401	1573.85168	-638.26105	934.34613	1420.74072	-834.35345	939.31592	1566.38940	-824.14868	943.43433	1307.71570	-694.06097	589.31976	1317.54004	-716.08502	455.70712	1309.09338	-847.69592	319.30603	1356.19666	-978.92706	141.21358	1411.49219	-1028.58191	140.65056	1355.59180	-882.28339	29.31343	1635.96887	-643.19336	605.31647	1607.86780	-605.29205	451.93677	1616.24377	-634.51697	276.93192	1569.68896	-632.53735	70.67254	1520.26648	-679.46863	30.59189	1564.15918	-490.59552	37.16754	1523.84326	-693.32739	1714.04871	-3101.98413	1973.07190	1023.34625	-3140.67700	2012.48889	1022.00616						 
101	1.000	1434.55530	-691.08563	1676.38171	1545.11755	-664.97443	1684.89697	1455.21851	-790.88422	1604.19202	1572.87231	-765.79327	1611.40503	1479.47998	-786.13336	1425.47595	1474.90552	-815.37317	1133.72058	1479.87781	-640.84766	1364.88635	1467.15820	-594.67920	1208.78821	1546.03088	-837.83221	1228.60938	1320.41870	-697.51373	1399.93726	1226.40271	-708.62421	1219.48975	1219.65393	-708.71570	1066.85657	1195.26453	-650.81317	967.55139	1216.41174	-554.35358	869.07050	1188.72791	-605.15503	854.12292	1180.65686	-543.26642	796.64600	1629.84558	-709.90424	1383.34460	1719.72131	-769.74854	1179.19983	1717.15466	-766.74298	1055.29688	1745.35913	-742.89819	937.33997	1728.55713	-664.05096	819.54211	1764.80554	-710.54767	819.95996	1759.68994	-675.82507	740.14655	1360.80090	-645.59180	927.02399	1575.75781	-632.57733	934.59735	1422.47864	-828.49371	939.73828	1568.09473	-818.25220	944.18274	1308.06360	-682.06152	589.69727	1317.32336	-702.18311	456.14023	1309.09045	-836.72565	323.03244	1356.09839	-971.08881	147.35269	1411.92407	-1019.83600	148.72415	1356.23694	-880.52124	29.90964	1637.46143	-640.16241	605.37347	1609.36804	-603.45490	451.60040	1617.23926	-633.79694	276.71085	1569.92188	-632.52277	70.54893	1520.33838	-679.54852	30.51135	1564.35876	-490.46118	36.75132	1525.78088	-687.47284	1714.62012	-3101.89429	1973.13416	1023.59772	-3140.82324	2012.51758	1022.03198						 
